<?xml version="1.0" encoding="UTF-8"?>
<svg id="Layer_1" data-name="Layer 1" xmlns="http://www.w3.org/2000/svg" viewBox="0 0 62.82 71.4">
  <defs>
    <style>
      .cls-1 {
        fill: #231f20;
        stroke-width: 0px;
      }
    </style>
  </defs>
  <g>
    <path class="cls-1" d="M33.2,38.5c.31-.14.11-.27.14-.33-.51.32-.09.37-.14.33Z"/>
    <polygon class="cls-1" points="31.21 42.99 31.13 42.91 31.35 43.56 31.21 42.99"/>
    <path class="cls-1" d="M32.95,47.01c-.17-.18-.6-.31-.96-.63-.39-.31-.63-.8-.62-1.28l.06-.18c-.1-.1-.21-.21-.31-.34.05.61.18,1.24.57,1.67.38.45.89.69,1.25.76Z"/>
    <path class="cls-1" d="M35.88,46.83c-.1-.02,0-.11,0-.12,0,0,0,0-.08.07-.1.07-.18.14-.57.36.08-.02.1-.03.15-.04.11-.06.25-.14.5-.27Z"/>
    <path class="cls-1" d="M35.38,47.11c-.65.34.47-.11,0,0h0Z"/>
    <path class="cls-1" d="M37.09,45.96l-.39.39c.14,0,.55-.23.43-.09.43-.35.29-.36-.05-.31Z"/>
    <path class="cls-1" d="M37.38,45.46l-.21.19c.06,0,.13-.03.21-.19Z"/>
    <path class="cls-1" d="M36.73,46.07l.44-.41c-.1,0-.16-.1-.21.18-.02-.12-.06.03-.23.23Z"/>
    <path class="cls-1" d="M36.42,46.2c-.29.1-.65.26-.26-.13-.41.3-.57.48-.51.52.09.02.35-.09.77-.39Z"/>
    <path class="cls-1" d="M33.28,46.64c-.14-.02-.28-.05-.41-.12-.14,0-.28-.02-.41-.05.1.03.29.15.48.2.19.04.35.03.35-.02Z"/>
    <path class="cls-1" d="M40,44.31c-.01-.08-.26-.07-.35-.13l-.29.29c.2-.07.55-.23.63-.15Z"/>
    <path class="cls-1" d="M39.65,44.18l.43-.43c-.45.27-.5.38-.43.43Z"/>
    <polygon class="cls-1" points="37.25 45.07 36.57 45.83 37.4 44.97 37.25 45.07"/>
    <polygon class="cls-1" points="41.91 43.1 41.72 43.43 42.08 42.88 41.91 43.1"/>
    <path class="cls-1" d="M43.15,42.26c-.07.13.04.13.14.14.11,0,.31-.08.11.11.41-.33.36-.29.3-.39-.07-.12-.13-.26-.18-.39-.05-.08-.09-.16-.12-.25-.03-.08-.05-.21-.06-.25-.02-.05-.02-.1-.02-.15,0,.06,0,.11.03.16.02.06.04.19.07.27.03.1.08.16.13.28l.09.21c.05.09.01.02.02.04,0-.01-.03,0-.08.02-.03,0-.36.22-.42.21Z"/>
    <path class="cls-1" d="M43.15,41.13c.2-.16.15-.27.15-.07,0-.2.06-.11-.15.07Z"/>
    <path class="cls-1" d="M40.95,43.23c.06.01.2.07.51-.07l-.31-.05c-.06.04-.13.08-.2.12Z"/>
    <path class="cls-1" d="M41.14,43.11h.01c.22-.13.37-.22.43-.26-.06.03-.19.11-.44.26Z"/>
    <path class="cls-1" d="M40.9,43.26s.03-.02.05-.03c-.03,0-.05,0-.05.03Z"/>
    <path class="cls-1" d="M38.65,44.4c.23-.29.77-.79.08-.56-.13.26.26.13-.08.56Z"/>
    <path class="cls-1" d="M40.51,43.2l-.56.3s.18.05.07.19l.49-.49Z"/>
    <polygon class="cls-1" points="40.73 42.97 40.51 43.2 40.72 43.08 40.73 42.97"/>
    <path class="cls-1" d="M43.45,41.69s.02-.07.01-.07c-.03-.01-.11-.29-.13-.4-.07-.21.03-.37-.04-.24.08-.16-.05.04.07.37.01.05.03.1.05.15,0,.02,0,0,0,0,0-.01-.02,0-.03.01-.03.02-.05.01-.1.06,0,.09.04.2.16.11Z"/>
    <path class="cls-1" d="M42.34,42.37l.04-.04s-.07.02-.04.04Z"/>
    <polygon class="cls-1" points="43.21 43.79 43.24 43.74 43.2 43.73 43.21 43.79"/>
    <path class="cls-1" d="M43.23,41.58s-.03.01-.06.04c-.04.03-.08.06-.11.08-.07.06-.13.09-.16.12-.07.06-.12.13-.17.2.18-.14.36-.28.56-.44,0-.03-.02-.05-.05,0Z"/>
    <path class="cls-1" d="M42.7,41.66c.03-.08.05-.17.06-.23-.05.06-.12.21-.06.23Z"/>
    <path class="cls-1" d="M42.49,42.32l-.03.03c.1,0,.08-.02.03-.03Z"/>
    <path class="cls-1" d="M42.49,42.32c.1-.1.16-.2.23-.3-.13.1-.25.2-.34.3.04,0,.08,0,.11,0Z"/>
    <path class="cls-1" d="M44.71,44.6c-.2-.02-.48-.7-.36-1.33-.23-.58-.82-.1-1.11.47.09,0,.17,0,.37.59.08-.23.06-1.4.31-.9.21.8.02.68-.03,1.09.2-.37.5.99.83.76l-.23-.7c.05-.02.18.23.2.02Z"/>
    <path class="cls-1" d="M43.1,42.56l-.06-.25c0,.29-.04.51-.14.91.15.41.24.48.31.5l-.15-1.25.04.08Z"/>
    <path class="cls-1" d="M42.89,41.4c.24,0,.4.44.59.14-.06-.29-.15-.34-.21-.37-.03,0-.07,0-.1-.01-.02,0-.03,0-.05,0,0,0-.02.01,0,0,.04-.04.06-.05.09-.07-.02.01-.1.09-.1.09h0s.02.03.02.04c.01.02.02.05.02.06,0,.02-.03,0-.07-.01-.07,0-.15-.02-.15.12-.02-.01-.03-.04-.04-.04h-.01s-.01,0,0-.01c.03-.02.06-.04.08-.05.08-.04.18-.13.23-.18.05-.03.1-.1.12-.13-.02.03-.08.11-.12.14-.06.06-.15.14-.24.18l-.14.09h0s0,.04-.01.05h0s0-.01,0-.01h0s.03-.04.02-.01h0s.06,0,.08,0c0,.17-.05.03-.08.01h-.03s0,0,0,0c.04.04.1.19.13.27v.06s.02.06.02.06l.12.5c0-.14-.02-.28-.05-.51,0-.02,0-.03,0-.06,0-.02,0-.03,0-.06,0-.05-.04-.2-.08-.29Z"/>
    <path class="cls-1" d="M39.03,43.1s.05,0,.06.02c.05-.06.07-.1-.06-.02Z"/>
    <path class="cls-1" d="M39.52,42.94c-.06.07-.07.19-.33.32-.24.08-.05-.09-.1-.14-.11.14-.43.46.09.25l.06-.07c.45-.2,1.12-.31,1.07-.24-.22-.09-.4-.14-.78-.12Z"/>
    <path class="cls-1" d="M42.13,41.77l.4-.32c.1-.08.34-.28.4-.35-.07.01-.15.04-.26.09-.11.04-.19.05-.28.07l.08.08c-.51.27-.33.32-.34.43Z"/>
    <polygon class="cls-1" points="43.12 43.92 42.88 43.82 43.27 44.35 43.12 43.92"/>
    <polygon class="cls-1" points="43.33 45.22 43.12 45.2 43.29 45.52 43.33 45.22"/>
    <path class="cls-1" d="M57.3,48.43l-.22.21c.11-.09.18-.16.22-.21Z"/>
    <path class="cls-1" d="M59.12,47.27v-.11c-.06.1-.08.16,0,.11Z"/>
    <path class="cls-1" d="M35.95,69.08c.36-.14.54-.12.74-.18.18-.04.28-.09.19-.16l-.24-.1c-.25.21-.38.28-.69.44Z"/>
    <path class="cls-1" d="M53.45,55.52l-.14.02c-.04.12-.08.23-.12.33.08-.11.17-.23.26-.35Z"/>
    <path class="cls-1" d="M53.19,54.61l.55-.21c-.13.03-.31.1-.55.21Z"/>
    <path class="cls-1" d="M47.59,46.91l-.27-.31c.08.53.15.28.27.31Z"/>
    <path class="cls-1" d="M40.89,55.79c-.35.15-.61.29-.83.43.43-.16.84-.21.83-.43Z"/>
    <path class="cls-1" d="M56.77,46.04c-.13.13-.17.21-.14.25.14-.13.2-.22.14-.25Z"/>
    <path class="cls-1" d="M39.19,56.83c.07-.02.12-.05.19-.07.2-.19.41-.37.68-.55-.32.11-.66.28-.87.62Z"/>
    <path class="cls-1" d="M48.35,32.39s-.07.02-.1.03c0,.03.04,0,.1-.03Z"/>
    <path class="cls-1" d="M36.58,36.82c.1-.07.27-.18.43-.27-.09.03-.22.11-.43.27Z"/>
    <path class="cls-1" d="M43.96,50.46c-.05-.27-.03-.04,0,0h0Z"/>
    <path class="cls-1" d="M44.62,49c.03.06.07.1.12.1-.05-.02-.09-.05-.12-.1Z"/>
    <path class="cls-1" d="M37.69,59.51h-.02c.09,0,.08,0,.02,0Z"/>
    <path class="cls-1" d="M44,50.03c-.01.11-.02.23-.01.36,0-.06.01-.17.01-.36Z"/>
    <path class="cls-1" d="M43.9,50.1c0-.1,0-.17-.01-.24-.04-.03-.06,0,.01.24Z"/>
    <path class="cls-1" d="M44.04,50.92c-.06-.31-.05-.36-.06-.54,0,.06-.02.08-.03.07.02.1.04.24.08.47Z"/>
    <path class="cls-1" d="M56.69,31.59s.04,0,.06-.01c.2-.22.1-.14-.06.01Z"/>
    <path class="cls-1" d="M40.67,63.11l-.02.03s.03-.01.04-.02h-.02Z"/>
    <path class="cls-1" d="M41.4,62.42c-.19.46-.41.57-.71.71l.64.32.07-1.03Z"/>
    <path class="cls-1" d="M52.79,51.14l.75-.17c-.16.18-.32.32-.46.44-.07.06-.13.11-.2.16-.1.06-.18.11-.24.15-.26.17-.24.2.36.09-.16-.65,2.5-1.44,2.22-2.09l.48-.12c-.12.06-.12.11-.24.17.95-.2.33-.77,1.37-1.31.37-.17.66-.24.47-.03l.67-.63c.23-.13.24,0,.01.13l1.13-.8v.02c.04-.11.07-.24.14-.38.05-.08.09-.15.12-.2.19,0-.07.13,0,.19.1-.13.21-.28.35-.42.12.15-.18.51-.35.6.21.27.18.23.27.09.06-.12.29-.41.43-.09-.1.02-.19.08-.26.13-.02.25-.02.33-.02.41,0,.07-.01.16-.14.29.06-.05.23-.24.33-.51.1-.24.14-.52.36-.53.02.15.02.27.15.36-.24.21-.18.31-.17.53l-.32.1c.08.1.2.07.32.21,0,.02.01.03.02.05,0,0,.01.04.02.05.02.02.03.04.05.07-.03.55-.31.63-.52.71-.08.34.03.24.17.15.12-.1.28-.17.22.28-.13.21-.16.31-.28.46-.23.23-.49.49-.81.8-.57.25-.02-.22-.26-.17l-.3.52c-.11.07-.12-.02-.13-.06-.32.34.15.28-.39.76.04.4-1.51.41-2.01,1.24-.23.05-.02-.22-.15-.28-.86.9-.75.75-1.38,1.6l-.82.31c.65-.16.16.53-.29,1.12.25-.03.46-.05.6-.09l-.82.77c-.14.03-.11-.12-.04-.33-.05.06-.09.13-.12.18-.4.13-.33-.14-.2-.45.15-.02.3-.04.45-.07.12-.32.21-.64.05-.76-.04.07-.14.18-.25.28.03-.08.04-.15,0-.16-.05,0-.11.12-.21.29l-.41-.15.03.15-1.34.64c-.66.89-1.1,1.83-2.39,2.89.19-.45-.17-.4-.33-.66.56.01.98-.84,1.73-1.27-.39.23-.39.05-.33-.06l-1.1,1.11c-.12-.23-.38.03-.77.17.54.24-.75.92-1.18,1.4-.13-.12-.11-.34.55-.74-.91.17-.56,1.09-1.42,1.3.15-.11.25-.14.26-.26-.27.37-1.22.87-1.1.61l.15-.11c-1.05.65-3.11,2.12-3.01,2.57-.04-.04-.17-.51-.15-.62l-.98,2.41c-.05-.41-1.18-.69-.45-1.44-.27.12-.61.28-1.05.74.2-.07.72.15.52.33-.86.1-.56.12-1.53.36.29-.11.35.55-.05.8.01-.11-.36-.44-.26-.58l-.65,1.12c.18-.25-.24-.42-.55-.39.17.02-.85.57-1.08.79l.49-.18c-1.15.66-.64,1.44-1.72,2.05.13-.2-.02-.78-.36-.72-.05.14-.16.45-.5.76-.33.32-.92.49-1.45.27-.25-.1-.48-.29-.64-.54,0-.12.02-.24.04-.35-.15-.32-.2-.71-.26-1.12.13.24.32.57.53.83.23.27.61.44.95.46.46.05.81-.17.99-.32-.2-.17-.02-.18-.31-.28.02-.19.26-.16.32-.19-.08-.03-.15-.09-.19-.16-.04-.06-.05-.13-.06-.2-.36.23-.34-.27-.63-.44l.04.21.04.12c.03.08.06.14.09.21.05.12.18.21.3.25-.12.15-.41.28-.7.09-.23-.18-.34-.67-.32-1.31.13-.3.6.25.71.22-.13-.14-.2-1.15-.09-1.23l.15.51c.17-.63-.4-1.13.14-1.52.11-.18.65-.19.53-.34-.46-.06-1.55-.57-1.54-1.06.04-.04.37-.29.75-.47.38-.18.81-.29,1.03-.31h-.01c.06-.02.09-.02.11-.02.27,0,.22.23.2.44l-.03.02c-.07.26-.14.51.09.53-.02-.05.02-.15.08-.24l.06-.04s.05-.11.08-.14c.29-.1.05.31.57-.09-.1-.34,1.12-.71.1-.41.48-.44.6-.32,1.21-.75-.32-.05.14-1,.61-1.44.02.09.2.11.29.11,1.09-.71,1.76-.98,2.76-1.68.14,0,.68-.25.56.01.11-.15.17-.34.47-.56.76-.18-.66.52,0,.49-.08-.19.64-.79,1-1.2-.31-.15-1.04.67-1.4,1.09-.25-.34.26-1.24,1.17-2.14.75-.68.51-.04.62-.19.8-.54.96-.9,1.03-1.23.07-.34.13-.57.51-1.09.43-.4.51.15.74.11-.19.81-.7,1.01-1.03,1.39.18-.12.35-.27.51-.42-.06.26-.38.73-.66.85.27-.06.91-.63,1.27-1.51.39-.86.43-1.94.37-2.7-.15-.22-.28-.67-.37-.44.04.15.06.31.11.46-.14.47-.44-.84-.45-.23-.24-.59-.57-1.25-.57-2.13l.28-.2c-.09.03-.1.59.02.82-.18-.34.23-1.39-.23-1.73l-.13.64c-.24-.6-.67-1.32-.68-2.1-.25.39.06.17-.22.77.37-.53.25,1.97.61,1.14-.33.62-.04.99-.28,1.77.1-.04.16-.29.2.37.03.03.08.09.11.13,0,.02,0,.03,0,.04v-.04s.03.03,0-.01c.02-.16.06-.29.11-.35.14.14.24.47.33.81.02.09.05.18.07.27.01.06.03.12.05.17l.03.09c.04.12.08.22.12.29-.02.32-.13-.12-.22.06.07.13.14.27.2.41-.22.06-.43.75-.51.08-.01.2-.04.39-.08.58-.19.31-.41.67-.48.95-.17.18-.23.67-.2.39-.08.12-.17.24-.27.35-.1.11-.3.28-.44.42l-.04-.04c-1.02.72-1.87,1.82-3.28,2.32-.32.29-.63.6-1.26.95l-.22-.08c-.41.37-1.46.77-1.54,1.06-.35-.05-.84.23-1.35.59-.25.18-.51.38-.77.57-.13.09-.25.19-.37.27-.14.1-.28.19-.4.28l.13-.08c-.12.07-.23.13-.33.19l.1.24c-.66.42-1.36,1.04-1.78,2.16l.23.03c-.13.47-.31,1.07-.4,1.61-.05.26-.09.54-.14.82-.03.29-.05.59-.04.88-.09-.08-.06-.39-.01-.6-.08.22-.12.44-.15.67-.02.27-.03.69,0,1.01.09.65.51,1.24.99,1.61.63.47,1.37.59,2.05.66.46-.13.77-.21,1.09-.28-.04.02-.08.04-.1.06.05-.02.11-.04.18-.07.2-.06.42-.12.64-.22-.21.07-.4.13-.55.17.16-.08.37-.2.56-.36.19-.16.28-.24.42-.37l.26.11s.04-.03.06-.05c.33-.12.16-.25-.1-.29.12-.13.22-.26.29-.38.46.16.67-.62,1.23-.5.07-.3,1.35-1.11,1.25-1.56.04.04.14,0-.01.11.35-.18.7-.36.91-.65l.31.16.46-.81c.53-.14.77-.17.49.31.8-.99.74-.67,1.4-1.56l.07.19c.3-.22.64-.77.92-.77.91-.17,3.45-2.3,5.42-3.23-.68-.24.97-.35.78-.77.18.04.47-.06.26.23.83-.73,1.48-.75,1.89-1.49.18.04-.08.3.06.3.06-.07.22-.29.36-.29.14,0-.07.19-.17.33.91-.65.76-1.06.6-1.44.58-.17.79-.35.98-.79.24,0,.59-.08.04.35.33-.21,2.08-1.19,1.93-1.48.15,0,.46-.29.53-.38.74-.48.82-.5,1.51-1.01l-.23.09c.06-.51.54-.48,1.09-.91v.04c1.48-.67.5-.5,1.98-1.13l-.21-.15c-.04-.11,0-.2.12-.29.2-.14.57-.34.82-.74.27-.42.41-.86.37-1.26-.06.12-.11.23-.18.34-.06-.33.25-.76.48-1.25,0-.02.01,0,.02-.02l.02-.02c.14-.31.24-.73.24-1.01.03-.18.09.24.14.47.13-2.13-.32-.19-.47-1.53.11-.36.43.06.31-.92-.02-.12-.11-.3-.3-.47-.19-.18-.52-.39-.9-.43-.76-.11-1.52.25-2.13.37.28.02.49.05-.04.43-.16.1-.35.2-.56.3-.21.11-.45.22-.69.34-.17.07-.35.14-.51.23-.32.16-.6.36-.72.63-.09.02-.14,0-.16-.02-.39.37-1.35,1.07-1.51,1.42-.83-.44-2.62,2.01-2.99,1.31l-.58.32c-.15.08-.28.14-.42.2l.02-.09c-.46.13-.75.14-1.07.16-.03-.18.09-.15.13-.18-.04-.14-.01-.27.02-.37,0-.1,0-.19-.01-.26,0-.09-.02-.16-.04-.23-.03-.11-.07-.26-.11-.38-.09-.27-.23-.56-.42-.98l.23-.17c-.19-.32.06-2.25-.44-3.7.03.01.08.03.13.15-.27-.81-.24-1.84-.28-2.73-.02-.44-.05-.85-.14-1.17-.1-.29-.23-.49-.46-.59-.09-.3-.16-.6-.15-.89-.15.53-.2.53-.31.37-.1-.15-.16-.43-.29-.15,0-.28.19-.62.36-.74.17-.12.25-.09.14.16l-.08.06c.12.13.22.02.35-.1.1-.12.33-.28.37-.27h.01s.12-.06.12-.06c.27-.13.49-.22.54-.12,2.45-1.42,4.98-2.56,7.3-3.86l-.45-.17.81-.44c.25-.05.43.09-.16.4.4,0,.88-.7.85-.78,1.2-.51-.23.62.12.43l.45-.29-.13.02c.3-.34.27-.51.95-.87.02,0,.04,0,.05-.01.04,0,.07,0,.1,0,.12.04.05.16.22.11,0,.02.11.02.42-.17.52-.25,1.06-.72,1.32-1.37-.19.22-.41.4-.64.52.21-.35.36-.74.38-.95.02-.22,0-.21-.26.1.15-.15.29-.48.29-.89,0-.39-.04-.67-.09-1.06-.1-.73-.26-1.54-.37-2.16v-.05s-.03-.07-.03-.07c-.21-.68-.81-1.1-.99-1.22-.63-.16-1.12-.06-1.57.05-.23.06-.44.13-.66.22-.1.04-.24.09-.36.16-.1.05-.2.11-.3.17.22-.06.5.15-.18.51-.1-.72-1.35.46-2.13.36.64,0-1.83,1.17-.85,1.12-.58.28-.16-.2-.66-.09-1.17,1-2.96,1.56-4.53,2.59.02.09.36.05.08.36l-1.08.13c-.3.23-.03.61-.77.69.12.02.3.04.1.19-3.38,1.5-6.28,4.13-9.9,5.33.52-.11.24.08-.09.28.24-.09.11.19.21.27l-1.51.51c-.08.43-1.43.87-1.41,1.23l.4-.3c-.38.66,1.21.25,1.38.71.42-.74,1.99-.45,2.72-1.59.28-.05-.12.25.06.27.16-.33.46-.56,1.09-.83l-.04.08c1.63-1.02,2.44-1.27,4.38-2.26l-.26-.12c.42-.21.54-.2.76-.26.28-.58-1.13.65-.92.06.78.1,2.82-1.66,3.46-1.4.62-.36-.32-.13.3-.49l.24.03.06-.26c.42-.21.72-.17.8-.07-.11.05-.26.19-.36.27.61-.16,1.44-.92,1.65-.98l-.64.27c1.61-1.11,3.76-2.16,5.23-3.38l-.18-.02c1.13-.91,1.05-.48,2.37-1.37l-.04.05c.22-.26.55-.52.93-.73-.14.16.06.12.24.09.2-.04.29-.02.16.14.16-.17.34-.25.44-.32.1-.06.15-.1.19-.14.07-.07.1-.21.46-.37.04.07.06.14.07.21.17-.07.3-.19.56.24l-.02-.06s.02.07.03.12c-.03-.06-.05-.1-.06-.12l.02.07c-.09-.07-.12,0-.14.05l-.02-.09c-.06.12-.11.3-.25.04l.03.13s-.04-.01-.06-.02v.04s-.04-.14-.04-.14c-.08,1.62.82,2.3.37,3.08.27.13.35.07.28-.41-.05-.4-.15-.83-.06-.63.1-.39.5.58.51,1.04,0,.22-.19.4-.41.48-.23.09-.41.08-.79.23.09-.03.07-.06.14-.09-.09,0-.1,0-.34.1-.08.02-.15.07-.22.11-.23.16-.28.21-.45.32-.14.09-.3.16-.5.2-.14.44-.7.38-.59.77l1.02-.68c-.55.43-.89,1.16-1.99,1.53.04-.11.28-.37.45-.54-.35.06-.52.39-.88.45-.11-.39,1.25-.81,1.74-1.44-.39.03-1.08.94-.97.39-.2.74-1.17.59-1.75,1.4l-.07-.24c-.11.1-.31.35-.54.47l.26-.5c-.5.59-1.34.5-1.87.97,1.27-.73.43.09,1.05-.07-1.41,1.17-1.21-.02-2.91,1.08.22-.16.96-.39.65-.08-.36.15-.85.32-1.11.33-1.14.71.3.11-.12.52-.54-.03-.51.43-.98.8l-.12-.21c-.44.2-.62.33-.69.44l.21-.09c-.32.19-.2.27-.32.4-.08.15-.33.28-.74.81.04-.29.16-.61.35-.9-.31.28-.53.62-.67.96-.05-.11-.09-.22-.12-.34-.25.63-.26,1-.33,1.35-.04.34-.1.69-.09,1.16.15-.24.44.12.56.79-.07.48-.26-.22-.09.73-.18-.19-.4-.39-.24-.84-.09-.03-.19-.21-.27-.25-.07.59.15,1.26.21,1.62-.01-.13-.02-.29,0-.38l.53,1.32c-.06.23-.15.07-.25-.09.07.27.2.45.28.85-.21-.07-.4-.01-.58-.58l.41,1.27c-.07.1-.13.71-.23.55,0,.74.64,1.72.63,2.7.04.04.1.14.15.34.03.35.04.68.05,1.02,0,.17.02.34.04.51-.05.07.17.24.11.39,0,.16-.06.34.02.48-.03.45.18.82.33,1.06,0,.32.13.66.33.97.6.36.37.07.26-.14-.05-.11-.07-.21.02-.2.1,0,.3.13.79.27.7.12.81.09.82.21,0,.1-.13.24.13.27.2-.04.44-.18.69-.31.26-.13.52-.28.76-.45.59-.34.88-.53,1.39-.64-.24.21-.5.28-.75.44ZM60.33,46.72c-.11-.02-.36.2-.34.02.24-.4.31-.23.34-.02ZM51.91,56.01c.08-.15.29-.25.56-.32-.15.12-.33.24-.56.32ZM44.11,52.86v.02c-.21.26-.13.18,0-.02ZM44.38,52.2c-.02-.08-.06-.07-.09-.05.06.06.03.22-.03.39.07-.03.14-.12.12-.34ZM59.99,31.66c-.08.01-.2.03-.25.02.48-.25.38-.16.25-.02Z"/>
    <path class="cls-1" d="M53.21,54.72c.07,0,.11.03.15.06.04-.08.02-.12-.15-.06Z"/>
    <path class="cls-1" d="M47.64,46.97v-.03s-.03-.02-.05-.02l.05.06Z"/>
    <path class="cls-1" d="M35.11,62.4c-.08.04-.11.04-.13.03l-.08.05c-.09.03-.16.03-.21.03.02.04.08.05.22,0l.08-.05s.04-.01.11-.05Z"/>
    <path class="cls-1" d="M43.45,47.62l.14.59c-.05-.29-.01-.4,0-.55-.05.02-.12.15-.15-.04Z"/>
    <path class="cls-1" d="M44.21,42.23c-.04-.08-.03-.18-.07-.27l-.11.04c.06.37.18.62.18.23Z"/>
    <path class="cls-1" d="M44.17,46.96c.19-.08.07-.44-.02-.85v.07c-.29-.08-.13.35.02.78Z"/>
    <path class="cls-1" d="M44.13,46.01c-.03-.13-.05-.26-.06-.39-.12-.03,0,.16.06.39Z"/>
    <path class="cls-1" d="M44.26,51.3c.03-.16-.27-.06-.2-.15-.14-.05-.02.15.08.31.1.16.22.24.12-.16Z"/>
    <polygon class="cls-1" points="44.79 46.53 44.56 46.71 44.79 46.92 44.79 46.53"/>
    <path class="cls-1" d="M45.06,49.85l-.02-.68s-.08-.07-.11-.17c.05.41.06.87.13.84Z"/>
    <path class="cls-1" d="M44.93,49.01c-.02-.22-.06-.42-.12-.53.02.12.06.36.12.53Z"/>
    <polygon class="cls-1" points="44.99 47.43 44.96 47.63 45.01 48.11 44.99 47.43"/>
    <path class="cls-1" d="M42.54,55.77l-.55.49c-.01.11.18.04.39-.15.11-.15.31-.34.17-.34Z"/>
    <path class="cls-1" d="M44.75,54.87c-.19.13-.24.1-.38.12l.2.24c.07-.12.13-.24.19-.36Z"/>
    <path class="cls-1" d="M43.05,56.34c0,.11-.72.83.02.26.01-.11.57-.61-.02-.26Z"/>
    <path class="cls-1" d="M33.7,62.32l.14-.12-.33-.39c.06.17.12.34.19.5Z"/>
    <path class="cls-1" d="M35.04,66.55c-.4.2-.39.29-.37.37.03.07.04.16-.12.16-.04.17.3-.04.28.09.32-.38.62-.49.21-.62Z"/>
    <path class="cls-1" d="M34.83,67.17c-.03.05-.05.09-.08.15.06-.07.07-.11.08-.15Z"/>
    <polygon class="cls-1" points="34.67 37.63 34.13 37.83 34.53 37.79 34.67 37.63"/>
    <path class="cls-1" d="M33.93,38.5l-.28-.21-.14.42c.1-.08.3-.23.42-.21Z"/>
    <path class="cls-1" d="M59.78,47.75l.08-.04c.08-.06.09-.09.1-.16-.06.08-.12.14-.18.2Z"/>
    <polygon class="cls-1" points="56.86 49.08 56.98 49.02 56.61 48.9 56.86 49.08"/>
    <path class="cls-1" d="M49.79,52.48c.22.06.46.08.71.04.12,0,.25-.02.36-.03.12-.02.25-.07.36-.1-1.03.3-1.43-.31-1.43.09Z"/>
  </g>
  <g>
    <path class="cls-1" d="M5.81,60.68c-.2-.26-.29-.04-.35-.06.41.4.38,0,.35.06Z"/>
    <path class="cls-1" d="M9.97,63.4l-.12.03c.24.06.47.14.7.19-.2-.07-.39-.14-.59-.22Z"/>
    <path class="cls-1" d="M13.83,65.55c-.21-.51-1.45-.67-2.07-1.17l-.07-.13-.45.08c.86.44,2.04.84,2.6,1.23Z"/>
    <path class="cls-1" d="M15.62,67.25c-.07-.19.51.1-.48-.27.04.04.05.05.08.07.09.04.21.09.41.2Z"/>
    <path class="cls-1" d="M15.22,67.06c-.43-.19.23.23,0,0h0Z"/>
    <path class="cls-1" d="M17.22,67.86l-.61-.13c.08.13.58.36.37.33.61.19.52.06.24-.2Z"/>
    <path class="cls-1" d="M17.85,67.86l-.31-.08c.04.05.11.1.31.08Z"/>
    <path class="cls-1" d="M16.88,67.61l.66.17c-.06-.09-.02-.2-.3-.09.09-.08-.07-.03-.36-.08Z"/>
    <path class="cls-1" d="M16.55,67.41c-.28-.21-.67-.44-.06-.3-1.08-.44-1.04-.14.06.3Z"/>
    <path class="cls-1" d="M14.2,65.31l-.36-.3-.4-.07c.2.04.74.49.76.37Z"/>
    <path class="cls-1" d="M20.69,69.47c.06-.06-.12-.26-.13-.37l-.45-.08c.2.13.59.34.58.45Z"/>
    <path class="cls-1" d="M20.56,69.1l.68.12c-.56-.23-.68-.21-.68-.12Z"/>
    <polygon class="cls-1" points="18.11 67.53 16.98 67.34 18.31 67.61 18.11 67.53"/>
    <polygon class="cls-1" points="23.12 70.36 22.69 70.4 23.43 70.38 23.12 70.36"/>
    <path class="cls-1" d="M24.69,70.9c-.47-.01.49.43.02.36.72.21,1.4.14,1.96-.03-.6.12-1.28.05-1.98-.33Z"/>
    <path class="cls-1" d="M27.56,70.88c-.27.13-.56.26-.9.36.32-.07.63-.18.9-.36Z"/>
    <path class="cls-1" d="M22.3,69.65c.03.06.09.21.43.39l-.18-.29c-.08-.03-.16-.06-.25-.09Z"/>
    <path class="cls-1" d="M22.55,69.73h0c.27.11.46.18.54.21-.07-.03-.23-.09-.54-.21Z"/>
    <path class="cls-1" d="M22.24,69.62s.04.02.06.02c-.02-.03-.03-.04-.06-.02Z"/>
    <path class="cls-1" d="M19.67,68.38c.41.03,1.22.21.55-.25-.32.03.07.3-.55.25Z"/>
    <path class="cls-1" d="M22.02,69.26l-.65-.29c0,.06.09.18-.12.17l.77.12Z"/>
    <polygon class="cls-1" points="22.38 69.32 22.02 69.26 22.27 69.37 22.38 69.32"/>
    <path class="cls-1" d="M25.72,70.86c.45-.03.94-.05,1.47-.2-.59.11-1.19.08-1.73-.03-.09.05-.37.13.25.22Z"/>
    <path class="cls-1" d="M24.06,70.28s.05,0,.07.01c-.03-.03-.06-.05-.07-.01Z"/>
    <polygon class="cls-1" points="30.29 66.9 30.24 67 30.27 67.02 30.29 66.9"/>
    <path class="cls-1" d="M25.38,70.58c-.38-.13-.65-.19-.86-.21.26.1.61.21.95.27.04-.02.05-.04-.08-.06Z"/>
    <path class="cls-1" d="M28.89,70.01c-.21.12-.45.25-.71.35.23-.04.69-.25.71-.35Z"/>
    <path class="cls-1" d="M24.21,70.39h-.05c.08.07.08.05.05,0Z"/>
    <path class="cls-1" d="M24.21,70.39c.08.01.16.02.22.01.02-.02.05-.04.1-.04-.08-.03-.03,0-.15-.03-.08-.01-.16-.03-.24-.04.03.03.06.06.08.09Z"/>
    <path class="cls-1" d="M28.92,65.66c.1.03.2.24.25.53.05.28.07.7-.15,1-.07.66.7.62,1.23-.2-.04-.02-.08-.04-.11-.18-.02-.08-.04-.17-.07-.3-.03-.1-.06-.23-.09-.4-.03.06-.05.19-.08.34-.03.13-.05.42-.14.58-.14.35-.28.48-.28.15.04-.26.05-.47.04-.62,0-.13.02-.2.04-.27.04-.13.11-.2.16-.43-.24.39-.38-1.17-.74-.96l.14.81c-.06.02-.15-.28-.2-.05Z"/>
    <path class="cls-1" d="M29.64,68.65c-.05.11-.12.23-.18.34.27-.35.49-.58.83-1.08.1-.62.03-.82-.02-.89-.14.7-.34,1.19-.67,1.75l.04-.13Z"/>
    <path class="cls-1" d="M28.17,70.22c.2-.33.77-1,.22-.81-.39.33-.55.44-.64.55-.1.1-.14.21-.45.36,1.65-.79-.43.38.84-.11-.31.23-.63.36-.95.45.35-.06.69-.17.99-.3-.02,0-.03,0-.05.01h0s0,0,0,0c-.09.02-.12.02-.03-.02,0,0,.02-.02.03-.02,0-.03.02-.07.04-.12.5-.26.11,0-.04.12,0,.01,0,.03,0,.04h0c.56-.36,1.03-.86,1.33-1.39-.25.29-.52.73-1.3,1.23Z"/>
    <path class="cls-1" d="M21.07,67.96s.03.05.02.06c.09,0,.13,0-.02-.06Z"/>
    <path class="cls-1" d="M21.54,68.28c-.1,0-.21.05-.51-.09-.24-.16.04-.1.05-.17-.2-.02-.69-.1-.16.22h.1c.49.28,1.06.77.96.76-.08-.24-.17-.42-.45-.72Z"/>
    <path class="cls-1" d="M24.41,69.75c.23.06.26.05.51.15.22.07.44.12.66.14-.21-.11-.4-.23-.58-.37v.12c-.56-.29-.49-.08-.59-.04Z"/>
    <path class="cls-1" d="M30.41,66.7c.08.09.15.18.21.28-.07-.47-.21-.62-.31-.84l.05.25c.02.08.03.15.05.32Z"/>
    <polygon class="cls-1" points="30.36 65.16 30.56 65.21 30.43 64.82 30.36 65.16"/>
    <path class="cls-1" d="M14.14,34.76l.3.16c-.14-.08-.23-.13-.3-.16Z"/>
    <path class="cls-1" d="M12.22,33.29l-.11.04c.12.03.18.02.11-.04Z"/>
    <path class="cls-1" d="M19.96,32.45c-.29-.43-.58-.98-.66-.76v.26c.3.16.5.33.66.5Z"/>
    <path class="cls-1" d="M1.63,27.82l.06-.15c-.08-.11-.16-.22-.23-.32.05.14.11.3.17.46Z"/>
    <path class="cls-1" d="M2.54,28.1l-.1.65c.04-.15.07-.35.1-.65Z"/>
    <path class="cls-1" d="M23.71,44.72c.07.17.16.28.22.51,0-.82-.11-.44-.22-.51Z"/>
    <path class="cls-1" d="M30.02,50.04c.08-.42.11-.76.11-1.05-.12.51-.3.92-.11,1.05Z"/>
    <path class="cls-1" d="M11.95,35.99c.19.09.28.11.31.07-.19-.1-.31-.14-.31-.07Z"/>
    <path class="cls-1" d="M30.11,47.77c-.02.08-.03.15-.05.22.04.31.08.61.07.99.09-.38.14-.8-.02-1.21Z"/>
    <path class="cls-1" d="M9.17,53.75s0-.08,0-.11c-.03,0-.02.04,0,.11Z"/>
    <path class="cls-1" d="M3.74,56.5c-.06-.14-.14-.37-.2-.59.02.11.07.29.2.59Z"/>
    <path class="cls-1" d="M30.35,59.22c.02.31.02.05,0,0h0Z"/>
    <path class="cls-1" d="M29.52,60.75c-.03-.07-.06-.12-.11-.12.05.02.09.07.11.12Z"/>
    <path class="cls-1" d="M28.71,44.68v-.03c-.04.09-.03.08,0,.03Z"/>
    <path class="cls-1" d="M30.26,59.69c.02-.12.04-.25.06-.4-.02.07-.03.19-.06.4Z"/>
    <path class="cls-1" d="M30.36,59.62c0,.11-.01.19-.02.27.04.04.06,0,.02-.27Z"/>
    <path class="cls-1" d="M30.33,58.78c0,.18,0,.35-.01.51.01-.06.03-.09.03-.07,0-.09,0-.22-.02-.44Z"/>
    <path class="cls-1" d="M21.33,51.66s.04.03.06.05c.36.09.22.02-.06-.05Z"/>
    <polygon class="cls-1" points="12.01 29.63 12.04 29.65 12.01 29.61 12.01 29.63"/>
    <path class="cls-1" d="M11,29.12c.54.05.75.23,1.01.49l.05-.73-1.06.24Z"/>
    <path class="cls-1" d="M18.78,38.19l-.51-.63c.95.32,1.43.82,1.01.16-.5.47-2.48-1.79-2.98-1.32l-.33-.43c.11.09.16.08.27.17-.6-.87-.9-.07-1.88-.93-.33-.31-.52-.58-.22-.46l-.91-.48c-.23-.19-.1-.24.13-.05l-1.26-.89h.02c-.24-.06-.74-.23-.98-.32-.25-.31.2.06.17-.06l-.78-.39c-.17-.35.5-.05.96.32-.11-.51-.27-.58-.56-.69-.14-.06-.31-.13-.52-.26-.2-.14-.6-.51-1.24-.8.43.09.85.29,1.18.51-.18-.39-.62-.73-1.21-.92-.59-.19-1.37-.28-2.32,0,.23-.07,1.21-.16,1.75.09.54.24.72.45,0,.4-.39-.09-1.05-.11-1.71.43-.11-.23-.93.32-1.28,1.22l-.26-.2c-.18.51-.15.76-.13.94.02.09.04.17.06.26.02.09.05.21.08.22,0,0,0,0,.01.01-.13.37-.44.38-.64.32-.15.18-.04.18.1.18.13,0,.31,0,.09.32-.24.15-.31.17-.49.25-.17.05-.36.13-.7.01-.25-.34.17-.11.12-.27-.13,0-.27-.02-.42-.07-.05-.08.03-.1.07-.11-.25-.22-.31.2-.62-.33-.1,0-.14-.11-.15-.25,0-.07,0-.15.02-.24.02-.11.04-.24.06-.36.08-.52.15-1.13-.08-1.61.07-.25.2.1.32.02-.36-1.33-.28-1.14-.71-2.24l.15-.97c-.2.72-.54-.16-.82-.93-.1.26-.19.48-.23.62l-.25-1.25c.04-.16.16-.03.31.16-.03-.08-.06-.16-.09-.23.09-.46.29-.23.49.08l-.17.46c.21.3.45.57.63.5-.04-.08-.08-.23-.11-.41.06.08.11.13.14.09.03-.04-.05-.17-.14-.37l.34-.31-.15-.06.06-.83.03-.41c.01-.14.02-.3.04-.33-.21-.2-.18-.83-.05-1.38.07-.26.18-.55.45-.78.26-.24.67-.37,1.12-.28-.46.18-.13.41-.21.71-.13-.2-.42-.17-.63,0-.11.09-.19.21-.27.32l-.1.17-.15.22c.23-.31.31-.12.3-.04.07-.28.25-.58.6-.7,0,.26.22.18.38.36,0-.26.16-.32.53-.15.34.16.85.55,1.17.67-.06.16-.29.21-.97-.32.56.86,1.33.21,1.91,1.01-.17-.12-.25-.2-.37-.18.48.16,1.4.94,1.09.9l-.17-.12c1.11.85,3.46,2.43,3.87,2.2-.02.05-.44.32-.55.34l2.84.24c-.38.18-.19,1.38-1.25.89.24.23.54.52,1.19.81-.16-.17-.16-.76.11-.61.46.82.36.52,1.02,1.4-.23-.26.4-.52.83-.19-.12.02-.28.49-.48.43l1.41.3c-.33-.11-.32.36-.16.66-.05-.17.94.67,1.26.83l-.39-.43c1.18.93,1.66.2,2.87,1.08-.21,0-.77.33-.19.83.45-.04,2.05-.26,3.26.32l.11.28.94.43c-.76,0-2.73-.27-3.73-.53.39.43.02.25.72.72.16.3-.51-.07-.72-.21l1.55,1.21c.12-.33,1.42.58,1.52.31l-1.94-.94c.12-.33,1.55-.08,2.66.77.21.31-.56.34-.6.45.21,0,1.21.58,1.26.72l-.59-.19c.56.55,1.29.36,1.87,1.15.13.11.28.36.41.55l.11.07c-.05.05.05.18.1.1,0-.17.06-.39.18-.61l-.05-.03c.11-.41.37-.78.64-.91l-.05-.03s.13-.05.19-.05c.07.05.43.44.66.9.25.46.36.98.35,1.19-.03.31-.27.18-.52.1-.24-.1-.48-.15-.49.07.08-.03.3.13.38.22.03.3-.29,0-.05.56.39,0,.24,1.28.36.21.23.62.06.69.1,1.45.23-.27.72.76.84,1.48-.09-.04-.2.12-.25.2,0,1.47-.15,2.26-.13,3.63-.08.13-.17.79-.32.51.06.2.18.37.2.8-.28.82-.06-.94-.41-.31.2.05.29,1.09.43,1.69.3-.19.04-1.39-.1-1.99.42,0,.88,1.03,1.1,2.46.12,1.14-.26.5-.2.69-.04,2.14.77,1.81.49,3.59-.26.71-.53.04-.73.2-.12-.93.15-1.43.13-2.05l-.11.78c-.09-.29-.17-.91-.1-1.25-.23.59.01,3.61-.18,5.26.1.29.2.8.3.55l-.05-.52c.21-.48.32.98.41.31.16.7.42,1.48.31,2.47l-.3.19c.09-.02.17-.65.07-.92.14.41-.39,1.52.02,1.96l.2-.69c.17.7.51,1.56.42,2.44.3-.4-.04-.2.31-.83-.43.55-.02-2.23-.47-1.36.4-.64.16-1.1.49-1.94-.1.03-.19.3-.15-.44-.03-.03-.07-.11-.09-.16,0-.02,0-.03,0-.05v.04s-.03-.03-.02.02c-.04.18-.09.32-.15.38-.24-.36-.25-1.53-.38-1.92.04-.44.12.18.22-.06l-.19-.59c.22-.06.35-1.16.5-.14v-.92c.11-.55.15-1.29.05-1.75.04-.44-.27-1.09-.08-.72l-.16-1.44h.06c0-1.44-.42-2.95-.04-4.58-.06-.48-.14-.97-.09-1.78l.19-.16c-.08-.62.16-1.86-.04-2.12.06-.08.11-.19.15-.32.02-.07.04-.16.05-.08.01-.09.03-.18.05-.28.06-.39.04-.87-.03-1.37-.13-1.01-.6-2.05-.96-2.7l-.25.09c-.17-.3-.39-.57-.64-.82-.13-.13-.26-.25-.42-.37-.18-.13-.27-.21-.58-.37l.11.07c-.21-.12-.44-.24-.69-.38l-.08.22c-.76-.31-1.59-1.31-2.64-2.02.12-.02.37.18.53.35-.95-1.28-2.82-1.53-3.74-2.62-.33-.13-.51-.29-.68-.48.03.02.05.03.08.04-.03-.02-.07-.05-.11-.08-.1-.12-.21-.24-.32-.37.09.13.17.24.26.33-.22-.15-.56-.35-.91-.53v-.29s-.05-.03-.08-.05c-.26-.29-.32-.08-.25.18-.18-.08-.36-.14-.51-.18-.04-.5-.92-.48-1.03-1.07-.33.02-1.7-1-2.11-.77.02-.05-.06-.14.12-.02-.33-.29-.66-.58-1.05-.71l.02-.36-1.01-.21c-.37-.49-.5-.71.1-.58-1.34-.5-1-.53-2.17-.91l.16-.13c-.35-.24-1.05-.4-1.17-.68-.28-.43-1.23-1.11-2.33-1.89-.55-.39-1.14-.81-1.71-1.23-.29-.22-.57-.44-.84-.65-.32-.23-.68-.46-1.14-.62.26.39-.1.17-.6.05-.51-.14-1.17.01-1.14.26-.23-.05-.73.17-.25-.25-.42.26-.73.56-.98.85-.26.31-.39.51-.54.75-.13.23-.23.45-.3.67-.03.11-.08.3-.1.45-.02.16-.05.31.03.48-.15.21-.2-.43-.29-.25.02.15.15.71.07.77-.04.07-.07.02-.1-.06-.03-.06-.07-.32-.11-.48.01.13.02.26.03.38.01.08.02.15.03.22.02.12.05.23.08.33.06.19.14.32.22.42.17.19.38.24.58.27-.15.65-.1.97.19,1.42-.12.23-.23.61-.32-.17,0,.44-.02,2.71.31,2.74-.07.14.02.62.07.73.06.99.03,1.08.14,2.06l.03-.28c.21.18.24.37.25.63.02.29.04.65.25,1.06h-.05c.38,1.01.72,1.12.89,1.25.11.06.2.12.4.24.2.12.5.33,1.1.45-.04-.08-.08-.16-.11-.25.13-.26.55-.11,1.15-.26.61-.13,1.29-.63,1.47-1.24-.11.11-.22.21-.34.31.12-.37.55-.67.9-1.26.2-.36.43-.4.5-.52.06-.03.03.11.04.2.25-.27.18-.22.09-.32-.1-.07-.27-.17-.11-.36.15.11.22.36.35.33.04.07.08-.13.39-.15.19-.09.91.41,1.2.81-.1-.24-.19-.47.28-.24.66.44,1.39,1.67,2.21,1.77.06.09.07.14.05.17.54.28,1.67,1.04,2.09,1.08-.07.99,3.22,1.93,2.75,2.53l1.5,1.08-.09.03c.47.39.76.57,1.11.75.07.03.13.06.19.07.07.02.13.04.19.06.06-.02.23,0,.34.02.14.18-.03.13-.07.15.45.47.58.82.76,1.11.18.3.38.57.65,1.2l-.23.16c.1.14,0,.81-.11,1.2-.04.19-.07.38-.15.57-.06.2-.26.37-.45.4,0-.03,0-.09.04-.13-.1.04-.23,0-.34-.07h0c-.67-.35-1.37-.88-1.92-1.24-.28-.18-.54-.32-.78-.39-.09-.03-.42-.13-.56-.11-.17,0-.31.04-.42.12-.52-.05-1.04-.01-1.54.14.99-.06.88.13.68.2-.21.1-.5.23-.16.3-.62,0-1.75.25-.97-.15h.15c.09-.22-.3-.21-.76.02-.47.23-.87.69-1.11.91l-.04.03-.08.24c-.05.14-.1.22-.16.2-.04.26-.06.53-.05.83.01.31.07.62.18.91.2.59.64,1.09,1.2,1.35,2.06,1.13,3.95,2.26,5.89,3.27l-.15-.49.9.49c.15.17.17.41-.43.08.14.2.39.25.58.29.2.02.38.06.42.03.3.44.1.42-.05.34-.18-.07-.4-.15-.3-.06.1.07.18.14.25.23v-.09c.26.14.48.08.61.71-.03.4-.21.21-.22.34-.02-.01-.03.04-.03.02v.13s0,.12,0,.21l-.05,1.31.3-.52c.13.58-.03,1.24.3.63-.26.44-.32,1.67-.34,2.85,0,.39.02.71-.04.99-.05.28-.2.45-.3.42-.08.14-.21.14-.32.11-.13-.02-.27-.05-.42-.1-.25-.08-.43-.15-.89-.33.21.14.24.5-.56.16.53-.53-1.39-.79-1.78-1.53.4.57-2.16-.96-1.52-.14-.59-.37.08-.24-.31-.63-.78-.28-1.54-.79-2.23-1.4-.67-.61-1.3-1.34-1.59-1.98-.09,0-.12.31-.36.04.01-.14.04-.31.07-.52l.1-.57c-.13-.38-.57-.25-.42-1.07-.05.13-.13.3-.21.03-.06-.52-.12-1.14-.5-1.78-.38-.62-.94-1.02-1.44-1.3-.25-.14-.51-.28-.76-.39-.24-.11-.5-.24-.83-.34-.62-.21-1.4-.24-2.07,0-.68.22-1.25.71-1.63,1.24-.18.25-.39.6-.53.94-.09.34-.06.78-.08,1.01-.03,1.13.02,2.26.12,3.42.01-.65.12-.24.26.2-.05-.3.21-.05.31-.14.06.62.19,1.29.36,1.88.42.17.98,1.75,1.38,1.73l-.37-.46c.7.45.16-1.34.67-1.46-.37-.25-.48-.81-.54-1.39-.07-.57-.12-1.2-.53-1.77.05-.3.2.21.28.04-.26-.28-.38-.67-.34-1.4l.06.08c-.02-.25-.04-.49-.04-.71,0-.11,0-.21,0-.31v-.19c.07-.23.24-.42.45-.64.43-.37.9-.54,1.6-.25-.01-.09-.03-.17-.05-.26.36.13.4.26.59.41.34-.03,0-.21-.27-.34-.26-.12-.53-.17-.29-.33.12.15.29.27.61.46.32.18.7.38,1.02.59.66.42.77.88.57,1.15.16.62.22-.29.38.39l-.11.23.23.16c.07.52-.06.84-.18.88-.01-.13-.11-.36-.15-.5-.02.36.09.86.23,1.29.04.11.07.22.1.32.05.13.1.24.15.35.09.21.15.37.18.44-.11-.32-.23-.74-.26-1,.09.27.25.71.42,1.02.19.32.39.64.62.9.44.56.96,1,1.47,1.43,1.04.81,2.16,1.42,3.2,1.79l-.1-.18c1.59.55,1.13.73,2.89,1.32h-.07c.37.02.84.13,1.29.31-.47-.03.71.53.1.46.35.08.63.14.84.19.23.03.39.14.5.14.29.08.36.03.48,0,.11-.04.32-.11.65-.17.12.07.25.1.38.12.19-.17.24-.33.33-.52.08-.2.18-.45.26-.96-.02.46.06.35.18.25.09-.11.23-.21.16.37.27-.5.38-1.11.35-1.65,0-.62-.05-.81-.08-1.12-.07-.57-.12-1.01.18-1.43-.5-.86-.31,1.61-.41,1.13-.17.4-.37-.71-.31-1.3.02-.57.61-.97.68-2.31v.12c.01-.14.01-.21.01-.32,0,.15,0,.22,0,.32v-.12s.02.06.02.11l.02-.11v.13c.12-.86-.23-1.4-.5-2.28-.51-.3-.79-.96-1.16-.74.47.32.87.78,1.13,1.31-.24-.45-.65-.77-1.1-1.03-.45-.27-.99-.42-1.49-.82.13-.02.49.05.78.13-.31-.29-.68-.26-.98-.55.14-.15.52.02.97.24.53.21,1.21.71,1.67,1.1-.1-.29-.56-.65-.91-.83-.35-.2-.55-.26-.22-.34-.5.05-.78-.11-1.14-.34-.36-.22-.76-.48-1.3-.52l.16-.18c-.16-.04-.5-.09-.76-.23l.61-.03c-.84-.14-1.3-.93-2.06-1.16,1.46.74.2.42.74.9-1.95-.64-.76-1.09-2.83-2.02.29.11.96.65.48.53-.19-.13-.49-.33-.61-.45-.04-.06-.05-.13-.04-.19-.15-.12-.18-.12-.22-.02-.04.08-.03.24-.17.17.15-.35-.26-.18-.35-.68h.24c.02-.13.06-.26.07-.35l-.19.43c.19-.24.11-.34.09-.46-.03-.1,0-.29.46-.43-.09.17-.15.33-.19.5.11-.11.23-.23.37-.3,0,.1,0,.19.02.28.34-.33.62-.3,1.13-.09-.04-.1,0-.2.13-.26.07-.03.15-.04.23-.04.07,0,.29.1.47.18.47.4-.39.06.73.59-.29.02-.66.05-1.06-.4-.08.05-.35,0-.35.08-.01.02.07.08.15.13.08.05.16.1.25.15.17.1.36.19.54.28.36.16.7.31.92.41-.16-.09-.35-.2-.44-.28l1.7.49c.25.22.05.2-.16.17.34.14.57.14,1.05.36-.11.15-.06.39-.79.13l.95.34h0c.28.05.56.06.83.02.08.04.36.08.61.05.24-.02.43-.08.31.03.63-.25,1.05-.95,1.16-1.83.04-.44.05-.95.04-1.37,0-.22,0-.44.01-.65.01-.21.01-.34.03-.52-.04-.07-.07-.2-.12-.48-.02-.62-.08-1.23-.28-1.87-.21-.63-.6-1.3-1.29-1.8-.14-.31-.33-.61-.57-.9-.06-.03-.11-.06-.15-.08-.07-.03-.12-.05-.17-.07-.04.02-.07.08-.08.16.15.13.2.24.21.3-.02.06-.03.1-.34-.03-.02,0-.04,0-.07,0-.02,0-.04,0-.06-.02-.02,0-.05-.02-.13-.07-.97-.59-.15-.49-.41-.81-.55-.2-1.55-.5-2.2-1.35.31.15.5.36.77.53ZM8.6,31.22c.36-.04,1.12.09,1.26.36-.48.05-.65-.19-1.26-.36ZM1.98,26.06c.09.17.07.43,0,.73-.03-.21-.04-.46,0-.73ZM30.1,55.79v-.02c.07-.51.04-.33,0,.02ZM30.01,56.85c.04.11.07.1.1.05-.06-.07-.07-.31-.06-.58-.06.08-.1.21-.04.53ZM21.68,54.82s.05-.05.07-.09c.02.06.02.12.02.1v.11c0,.19-.04.1-.09,0v-.12s0,0,0,0Z"/>
    <path class="cls-1" d="M2.44,28.06c-.04.07-.08.09-.12.11.05.09.09.09.12-.11Z"/>
    <path class="cls-1" d="M23.67,44.64v.04s.03.04.04.04l-.04-.09Z"/>
    <path class="cls-1" d="M27.38,40.92c-.04-.17-.05-.28-.04-.36-.06.02-.06.12.04.36Z"/>
    <path class="cls-1" d="M30.52,62.46l-.07-.68c.02.33-.03.45-.07.61.06-.02.14-.15.14.07Z"/>
    <path class="cls-1" d="M28.54,68.25c-.03.1-.11.18-.15.27l.11.05c.26-.36.3-.67.04-.32Z"/>
    <path class="cls-1" d="M29.73,63.1c-.2.06-.13.48-.08.96v-.08c.28.14.18-.37.08-.87Z"/>
    <path class="cls-1" d="M29.65,64.16c.01.15.02.3.01.44.11.05.02-.18-.01-.44Z"/>
    <path class="cls-1" d="M30.17,58.19c-.05.23.26.14.18.27.26.25-.34-1.5-.18-.27Z"/>
    <polygon class="cls-1" points="29.06 63.49 29.31 63.32 29.11 63.06 29.06 63.49"/>
    <path class="cls-1" d="M29.18,59.74l-.06.76s.07.08.09.2c0-.47.04-.98-.03-.96Z"/>
    <path class="cls-1" d="M29.22,60.7c0,.24,0,.48.05.61,0-.13-.02-.42-.05-.61Z"/>
    <polygon class="cls-1" points="28.97 62.46 29.02 62.23 29.03 61.69 28.97 62.46"/>
    <path class="cls-1" d="M29.09,51.57l-.09-.83c-.09-.08-.14.14-.1.45.06.2.1.5.18.38Z"/>
    <path class="cls-1" d="M28.45,54.09c.05-.23.1-.24.18-.37l-.31-.02.13.39Z"/>
    <path class="cls-1" d="M28.34,51.67c-.09-.08-.27-1.2-.23-.15.09.08.17.91.23.15Z"/>
    <path class="cls-1" d="M27.49,39.52l.13.15.38-.34c-.18.06-.35.12-.51.19Z"/>
    <path class="cls-1" d="M17.87,34.16c.73.66.37-.12,1.01.51.26.03-.52-.52-.27-.47-.56-.24-.77-.47-.74-.04Z"/>
    <path class="cls-1" d="M18.61,34.2c.09.04.19.08.29.11-.16-.07-.24-.1-.29-.11Z"/>
    <path class="cls-1" d="M4.56,58.9c.09.22.18.43.27.64l-.09-.47-.18-.18Z"/>
    <path class="cls-1" d="M5.59,59.79l-.17.32.48.15c-.1-.11-.31-.34-.32-.47Z"/>
    <path class="cls-1" d="M5.55,31.87v.12c.19-.09.35-.33.83-.66-.3.13-.58.32-.83.54Z"/>
    <polygon class="cls-1" points="14.97 34.99 14.85 34.89 14.89 35.29 14.97 34.99"/>
    <path class="cls-1" d="M20.91,39.01c-.23-.19-.54-.34-.77-.53.54.34.61.87.77.53Z"/>
  </g>
  <g>
    <path class="cls-1" d="M21.87.78c.39-.11.19-.26.24-.31-.65.25-.2.36-.24.31Z"/>
    <path class="cls-1" d="M19.02,6.08l-.09-.1c.09.28.19.55.31.81-.08-.23-.15-.47-.22-.71Z"/>
    <path class="cls-1" d="M20.67,10.99c.02-.58-1-1.62-1.13-2.6l.04-.17-.38-.33c.28,1.12,1.1,2.4,1.47,3.1Z"/>
    <path class="cls-1" d="M21.71,13.53c.01-.21.41.35-.25-.43,0,0-.01,0-.02-.02h0s0,0,0,0c0,.01,0,.02,0,.03h0c.06.09.14.21.29.41Z"/>
    <path class="cls-1" d="M21.42,13.12s-.01-.01-.01-.01c-.03-.02-.04,0-.03.03,0,0,0,.02,0,.02,0,0,0,0,.02.01,0,0,0-.03.01-.03,0,0,0,0,0-.01Z"/>
    <path class="cls-1" d="M23.06,15l-.57-.45c.04.17.45.65.24.52.54.49.5.32.32-.07Z"/>
    <path class="cls-1" d="M23.71,15.31l-.29-.23c.02.07.08.15.29.23Z"/>
    <path class="cls-1" d="M22.82,14.58l.6.5c-.03-.11.05-.2-.27-.23.12-.03-.06-.07-.33-.27Z"/>
    <path class="cls-1" d="M22.57,14.21c-.2-.35-.49-.79.06-.31-.89-1.03-.98-.72-.06.31Z"/>
    <path class="cls-1" d="M21.12,11c-.07-.17-.14-.33-.2-.5-.12-.11-.22-.22-.33-.33.15.17.45.92.53.83Z"/>
    <path class="cls-1" d="M26.06,18.18c.08-.03-.04-.31-.01-.41l-.44-.28c.16.22.5.59.45.69Z"/>
    <path class="cls-1" d="M26.04,17.76l.68.42c-.54-.5-.65-.51-.68-.42Z"/>
    <path class="cls-1" d="M24.08,15.12c-.35-.24-.71-.48-1.06-.74.4.32.81.62,1.23.92l-.17-.17Z"/>
    <path class="cls-1" d="M28.44,19.92c-.13-.04-.28-.06-.42-.09.24.06.47.13.7.2l-.29-.12Z"/>
    <path class="cls-1" d="M29.72,21c-.29-.08.07.43-.18.29.32.28.61.46.87.63-.23-.22-.42-.49-.69-.93Z"/>
    <path class="cls-1" d="M30.78,22.23c-.09-.11-.23-.21-.38-.31.11.11.24.22.38.31Z"/>
    <path class="cls-1" d="M27.84,18.99c.02.07.03.23.32.5l-.1-.33c-.07-.05-.14-.11-.22-.16Z"/>
    <path class="cls-1" d="M28.06,19.14h0c.24.19.41.31.48.37-.06-.05-.21-.16-.48-.37Z"/>
    <path class="cls-1" d="M27.79,18.95s.04.03.06.04c0-.03-.02-.05-.06-.04Z"/>
    <path class="cls-1" d="M25.36,16.67c.41.23,1.18.75.64.01-.33-.11-.03.32-.64-.01Z"/>
    <path class="cls-1" d="M27.64,18.54l-.7-.53c-.02.06.1.27-.19.1.44.28.62.3.89.43Z"/>
    <polygon class="cls-1" points="27.99 18.69 27.64 18.54 27.87 18.71 27.99 18.69"/>
    <path class="cls-1" d="M30.36,21.27c.26.16.45.41.63.68-.13-.32-.36-.65-.62-.95-.09,0-.28-.04-.01.27Z"/>
    <path class="cls-1" d="M29.36,20.18s.04.03.06.04c-.02-.04-.04-.07-.06-.04Z"/>
    <polygon class="cls-1" points="30.77 24.29 30.82 24.3 30.8 24.27 30.77 24.29"/>
    <path class="cls-1" d="M30.36,20.93c-.18-.25-.35-.34-.51-.42.17.15.36.31.53.5.04,0,.06-.01-.01-.08Z"/>
    <path class="cls-1" d="M31.07,22.76s.06-.15.06-.28c-.03.13-.1.29-.06.28Z"/>
    <path class="cls-1" d="M29.45,20.33l-.04-.02c.04.1.05.08.04.02Z"/>
    <path class="cls-1" d="M29.45,20.33c.14.08.27.13.39.18-.15-.12-.3-.21-.43-.29.02.04.03.08.04.11Z"/>
    <path class="cls-1" d="M30.43,25.86c.02-.1.25-.22.53-.37.28-.17.6-.37.91-.63.28-.76-.61-.46-1.06-.55.03.05.16.16-.2.44.11.04.35-.04.56-.13.19-.11.37-.2.27.06-.23.35-.43.4-.54.41-.12.01-.21-.05-.39-.04.19.08-.03.23-.35.36-.32.11-.71.18-.62.36.31,0,.63-.02.92-.12.03.05-.3.19-.03.2Z"/>
    <path class="cls-1" d="M31.23,23.57c.01-.07.02-.15.03-.23-.08.24-.22.42-.47.56-.04.25-.03.31,0,.38.17-.14.33-.43.43-.79v.08Z"/>
    <path class="cls-1" d="M31.26,22.47c.28.1.37.5.6.24-.04-.32-.16-.46-.24-.52-.08-.07-.16-.09-.31-.27.28.53.19.46.1.37-.09-.1-.21-.19-.13.17-.11-.19-.2-.35-.29-.5.08.19.13.38.14.53v-.02s0,0,0,0h0s.02-.07.02-.02c0,0,0,.01.01.02.03,0,.06,0,.09.02.02.26-.04.05-.09-.02-.01,0-.02,0-.03,0h0c.04.09.08.17.1.24l.03.08h0s-.03,0,.07.02c.04,0,.23.01.34.03l.19.03h.01s0,0,0,0h0s-.6-.1-.6-.1h0s0-.01,0-.01v-.02s.02-.04.02-.04l-.04.3c.01.05,0,.24,0,.36.03-.1.06-.27.06-.36l.04-.29v.06s-.01,0-.01,0h0s0,0,0,0l.54.09h0s0,0,0,0h-.03s-.07-.02-.07-.02c-.09-.02-.19-.03-.29-.04-.12,0-.16-.01-.14-.01h0s0-.05,0-.07c-.01-.06-.03-.15-.07-.25Z"/>
    <path class="cls-1" d="M26.92,16.89s.01.06,0,.07c.09.05.13.06,0-.07Z"/>
    <path class="cls-1" d="M27.31,17.4c-.1-.05-.23-.05-.49-.31-.19-.26.07-.08.1-.14-.2-.1-.67-.4-.23.14l.1.05c.1.12.21.25.3.38.08.13.27.32.34.41.17.21.27.36.22.34-.04-.27-.09-.43-.35-.88Z"/>
    <path class="cls-1" d="M29.89,19.83c.33.24.64.5.93.77-.08-.2-.19-.38-.29-.58l-.06.1c-.47-.52-.47-.3-.58-.3Z"/>
    <path class="cls-1" d="M30.66,24.25c-.03-.07-.07-.14-.11-.21.03.12.03.25-.04.39.07-.05.11-.12.14-.18Z"/>
    <path class="cls-1" d="M29.94,24.43l.04-.2c-.08.04-.17.08-.28.09.08.05.17.09.24.11Z"/>
    <path class="cls-1" d="M31.04,14.98l-.3-.23c.14.12.23.19.3.23Z"/>
    <path class="cls-1" d="M32.91,16.94l.12-.02c-.13-.05-.19-.06-.12.02Z"/>
    <path class="cls-1" d="M9.84,20.04c.27.54.54,1.18.65.96l.02-.28c-.32-.24-.51-.48-.67-.69Z"/>
    <path class="cls-1" d="M34.77,31.76c-.05-.02-.11-.04-.16-.05-.13.08-.25.16-.35.23.16-.05.33-.12.52-.18Z"/>
    <path class="cls-1" d="M35.03,30.84c.22.03.43,0,.66,0-.16-.02-.36,0-.66,0Z"/>
    <path class="cls-1" d="M32.8,4.8l.51-.15c-.76-.11-.44.05-.51.15Z"/>
    <path class="cls-1" d="M17.4,15.33c-.19-.41-.34-.73-.5-.99.19.51.26.99.5.99Z"/>
    <path class="cls-1" d="M33.46,14.17c-.19-.14-.29-.18-.32-.14.19.14.31.21.32.14Z"/>
    <path class="cls-1" d="M16.26,13.25c.02.08.05.15.07.23.2.26.36.53.57.87-.14-.38-.29-.8-.64-1.09Z"/>
    <path class="cls-1" d="M41.54,5.73l-.09-.08s.02.05.09.08Z"/>
    <path class="cls-1" d="M26.95.24c.16-.02.42-.03.67-.04-.12-.01-.32,0-.67.04Z"/>
    <path class="cls-1" d="M24.57,21.99c.28.17.06,0,0,0h0Z"/>
    <path class="cls-1" d="M25.5,23.58c-.07-.02-.14-.02-.17.02.05-.03.11-.04.17-.02Z"/>
    <path class="cls-1" d="M13.66,10.69v-.03c0,.11,0,.09,0,.03Z"/>
    <path class="cls-1" d="M24.93,22.35c-.09-.09-.19-.18-.31-.28.05.05.14.14.31.28Z"/>
    <path class="cls-1" d="M24.93,22.22c.09.07.16.12.23.17.05,0,.03-.05-.23-.17Z"/>
    <path class="cls-1" d="M24.2,21.74c.15.1.28.21.41.32-.04-.05-.06-.07-.04-.07-.08-.05-.19-.13-.37-.25Z"/>
    <path class="cls-1" d="M49.39,21.35s.01.03.02.05c.22.1.14.06-.02-.05Z"/>
    <path class="cls-1" d="M18.39,24.06h-.04s.03.01.04.02v-.02Z"/>
    <path class="cls-1" d="M19.5,24.63c-.59-.07-.82-.28-1.12-.55l-.02.75,1.13-.2Z"/>
    <path class="cls-1" d="M26.45,10.17c.15.32.33.65.52.94-.26-.15-.52-.39-.7-.57-.18-.18-.33-.36-.48-.55-.24-.36-.29-.29,0,.43.17-.06.41.14.7.43.26.26.59.57.92.89.61.61,1.22,1.22,1.51,1.03l.3.52c-.11-.13-.16-.12-.27-.24.55,1.04.94.27,1.89,1.39.32.4.49.73.19.53l.91.7c.22.25.08.27-.14.02l1.24,1.21h-.02c.25.11.76.4,1,.55.23.38-.21-.11-.19.03l.78.58c.14.4-.53-.05-.97-.55.13,1.11.68.46,1.73,2.12l-.69-.59c.13.69.72,1.1,1.25,2.01-.08-.26-.98-1.9-.14-1.26.17.25.42.54.9.85-.17.17.25.53.74,1.01l-.26.19c.58.47.66.32,1.06.53.46.53.32.82.25,1.07.58.95-.1-.88.69.21.37.89.78,1.41,1.07,2.45-.08.61-.2-.1-.28.12.11.17.18.34.23.52-.02.13-.09.07-.13.05.04.45.35.08.21.82.16.17-.17.48-.52.81-.21.15-.41.31-.61.49-.22.16-.41.34-.54.58-.24.08-.03-.23-.16-.28-.45.49-.72.66-.91.86-.2.17-.39.32-.86.7-.32.09-.68.04-1,.06.38.04.37.17.15.36-.21.18-.64.43-1.07.55.29.09.55.19.71.19-.46.15-.94.2-1.43.31-.18-.04-.03-.16.2-.31-.09.04-.18.07-.26.1-.51-.13-.24-.28.11-.49l.51.16c.33-.22.61-.45.51-.64-.08.04-.24.09-.42.12.08-.06.13-.11.09-.14-.05-.03-.17.05-.39.15l-.31-.33-.07.15c-.57-.08-1.13-.17-1.69-.32-1.25.2-2.5.46-4.52-.11.57-.06.25-.36.39-.64.2.26.59.35,1.04.42.45.09.97.12,1.47.26-.52-.16-.36-.28-.22-.29-.62-.02-1.23-.15-1.86-.24.12-.22-.31-.32-.72-.59.16.61-1.43-.2-2.18-.42.03-.18.26-.23,1.1.18-.78-.75-1.47-.03-2.23-.79.2.11.3.19.42.15-.55-.11-1.64-.86-1.29-.84l.2.11c-.66-.4-1.65-1.01-2.51-1.54-.88-.49-1.65-.86-1.87-.75.02-.05.45-.31.58-.33-1.03-.11-2.06-.24-3.09-.4.41-.16.16-1.4,1.32-.83-.27-.26-.6-.56-1.3-.92.17.19.2.79-.1.62-.52-.89-.41-.56-1.12-1.54.25.29-.43.49-.89.11.13-.01.31-.48.52-.39-.51-.15-1-.31-1.51-.48.35.15.35-.33.2-.66.04.18-.96-.82-1.29-1.03.12.17.26.33.38.5-1.18-1.15-1.76-.49-2.93-1.69.23.06.84-.14.34-.79-.44-.08-2.2-.26-3.22-1.58v-.35c-.24-.32-.46-.66-.66-1.03.33.29.93.8,1.58,1.24.64.44,1.35.8,1.81,1.08-.27-.54.05-.25-.51-.92-.06-.33.48.23.64.42-.41-.54-.73-1.07-1-1.63-.12.12-.38-.17-.6-.47-.2-.31-.41-.63-.52-.55.35.62.74,1.24,1.24,1.74-.1.12-.51.02-.91-.36-.41-.36-.86-.99-.99-1.72.03-.38.66.13.75.06-.21-.13-.42-1.19-.32-1.3.07.18.11.35.2.52.03-.35-.08-.61-.12-.92-.05-.3-.02-.65.3-.95.14-.27.78-.42.66-.57-.54.04-1.66-.41-1.61-.96.05-.05.46-.43,1-.7.51-.25,1.12-.36,1.35-.31.33.07.14.3.01.53-.14.24-.22.47,0,.51-.03-.09.17-.29.27-.35.3.02-.04.27.52.17.1-.4,1.22.24.3-.27.65.03.67.2,1.3.63-.03-.16.22-.22.59-.11.36.11.81.41,1.06.75-.1,0-.1.22-.11.32.36.73.49,1.36.69,1.95.23.58.44,1.16.84,1.83,0,.17.3.87,0,.67.18.16.39.27.66.67.27.95-.63-.88-.53-.09.1-.03.33.2.59.49.28.28.6.63.85.87.11-.35-.89-1.29-1.35-1.82.37-.22,1.34.54,2.47,1.63.87.89.14.59.32.72,1.54,1.8,1.88.96,3.08,2.49.41.7-.32.43-.32.68-.85-.61-1.06-1.19-1.56-1.68.17.24.35.46.53.69-.3-.16-.84-.6-1.04-.93.24.63,2.57,2.63,4.05,3.82.08.08.16.16.24.23.32.13.84.37.68.13l-.5-.31c-.3-.48,1.05.39.52-.12.72.31,1.55.56,2.43,1.15l.04.37c.02-.09-.54-.48-.85-.55.44.1,1.29,1.14,1.91.94-.2-.16-.41-.32-.6-.49.76.18,1.71.2,2.53.5-.31-.4-.22,0-.71-.53.19.29-.35.13-.84-.07-.49-.2-.95-.41-.63-.01-.43-.65-.98-.65-1.55-1.39-.03.1.16.33-.46-.11-.05,0-.13,0-.19-.02-.02-.02-.02-.02-.04-.03l.03.03s-.04,0,.01.01c.13.14.23.26.25.34-.41,0-1.24-.53-1.72-.81-.1-.06-.14-.07-.19-.09-.35-.31.22.02.08-.22l-.61-.23c.08-.22-.75-1.06.2-.49l-.76-.62c-.37-.47-.93-1.03-1.35-1.31-.3-.35-1.01-.65-.61-.48-.39-.34-.79-.67-1.16-1.03l.03-.05c-.98-1.14-2.31-2.23-2.79-3.93-.31-.41-.58-.85-.86-1.65l.12-.23c-.16-.3-.23-.7-.5-1.34-.23-.55-.54-1.01-.74-1.1-.07-.53-.84-1.49-2.14-1.98-.64-.24-1.4-.33-2.06-.24-.67.08-1.22.3-1.63.47l.06.26c-.25.12-.52.3-.69.43-.27.2-.46.39-.65.61-.37.44-.69.96-.92,1.59l.24.02c-.14.54-.38,1.19-.48,1.97-.09.77-.01,1.62.24,2.4-.12-.08-.2-.5-.23-.79-.04,1.05.51,1.98,1.07,2.76.61.79,1.27,1.41,1.67,2.13.33.24.51.47.66.72-.03-.03-.05-.05-.08-.07.03.03.07.08.11.12.1.15.2.31.31.47-.08-.16-.16-.3-.25-.41.22.21.57.52.94.79l-.02.31s.05.04.08.07c.27.36.34.15.29-.14.19.12.38.23.54.29,0,.54.97.67,1.07,1.3.36.05,1.84,1.29,2.29,1.09-.02.05.07.15-.13.01.36.34.73.68,1.15.84v.37s1.1.3,1.1.3c.42.53.58.78-.08.59,1.49.61,1.12.62,2.43,1.07l-.16.13c.4.26,1.18.45,1.34.75.3.4,1.43,1.22,2.77,1.98,1.34.78,2.93,1.53,4.19,2.19-.31-.73,1.14.71,1.4.29.11.18.47.38,0,.35,1.42.29,2.1.78,3.17.55.15.16-.34.15-.2.26.12-.01.48-.04.63.05.14.1-.23.09-.47.11,1.56.14,1.73-.34,1.84-.71.75.17,1.16.1,1.66-.22.27.06.75.13-.18.34.26-.02,1.09-.14,1.83-.36.72-.29,1.37-.59,1.3-.77.18-.01.65-.37.74-.47.97-.69,1.11-.73,1.86-1.7l-.26.23c0-.3.14-.49.3-.76.09-.13.18-.27.29-.43.1-.17.16-.38.23-.61l.03.04c.42-1.07.29-1.37.27-1.59-.05-.24-.02-.47-.18-1.57l-.19.18c-.28-.02-.33-.47-.48-1.06-.15-.58-.4-1.29-.85-1.72.05.14.1.29.14.44-.26-.22-.37-.68-.58-1.19-.16-.46-.29-.94-.49-1.19-.06-.13.2.11.36.22-.93-1.4-.38.06-1.28-.78-.03-.28.51-.09-.04-.71-.19-.39-2.06-1.36-2.61-2.39.08.27.15.54-.31.19-.64-.6-1.28-2.05-2.13-2.34-.05-.1-.06-.16-.04-.18-.54-.41-1.64-1.45-2.08-1.59.2-1-3.23-2.76-2.57-3.21-.43-.53-.56-.71-.65-1.11l.09.04c0-.09,0-.18.02-.25.15-.43.32-.57.47-.82.21-.01.09.1.1.14.17-.02.32-.04.45-.06.17-.01.33-.03.46-.04.29-.02.52-.04.75-.07.48-.06.89-.19,1.66-.34l.14.26c.21-.05.86.09,1.65.34.8.24,1.73.59,2.62.78-.03.02-.08.05-.22.03,1,.21,2.05.89,2.92,1.49.88.59,1.62,1.1,2.19.93.43.18.84.39,1.26.6-1.42-1.1.44-.17-.07-.72.32.19.62.5.83.73.18.19.21.32-.21.1l-.1-.13c-.13.05-.11.16.09.34.17.14.39.28.63.45.48.32.96.69.85.8,1.36.99,2.53,2.28,2.96,3.66.23.68.23,1.36.03,1.98l-.1.38c-.05.17-.04.29-.06.41-.03.25-.03.5-.03.76.01.52.1,1.05.3,1.58.05-.21.12-.4.19-.58.12.45.3.91.62,1.32.1.18.16.35.08.35-.08,0-.35-.17-.62-.67.02.14.1.31.23.46.14.17.25.28.55.47l-.14-.12c.41.29.75.34.79.32.79.57.63.54.23.46-.38-.11-.87-.4-.62-.2.24.17.49.32.77.44l-.16-.13c.35.1.56.11.84.14.27.02.61.1,1.28.09.87-.05.49.15.83.07,0,.02.14.01.51-.2.29-.16.6-.33.82-.55.26-.2.47-.42.65-.66-.23.12-.44.24-.69.33.46-.65,1.02-1.21.31-.81.29-.13.61-.53.95-1.05.07-.14.15-.28.23-.42.07-.16.22-.36.25-.58.03-.38.06-.77.09-1.16,0-1.47-.46-2.8-.51-3.13-.54-.85-.93-1.71-1.55-2.69.11.28-.08.59-.58-.26.78-.1-.84-1.63-1.05-2.53.13.37-.37-.14-.86-.58-.49-.44-.97-.81-.72-.26-.56-.61.14-.22-.22-.76-.82-.57-1.62-1.29-2.53-2.01-.97-.71-1.94-1.34-3.01-1.92-.07.06.22.36-.3.24l-.94-.96c-.45-.18-.61.26-1.26-.41.08.12.2.3-.1.19-2.07-1.15-4.39-1.93-6.76-2.47-2.38-.52-4.78-.85-7.24-1.25.66.19.22.18-.28.2.33.03,0,.22.06.33-.67-.09-1.36-.18-2.05-.22-.34.33-2.19.32-2.33.7.21-.07.42-.12.63-.18-.39.26-.05.41.36.56.41.16.9.33.87.58.88-.53,2.39.4,3.86-.13.32.1-.28.15-.11.26.38-.21.84-.2,1.67-.05l-.1.04c.59.02,1.09.12,1.55.2.46.07.88.17,1.31.3.42.12.86.25,1.34.39.48.17,1.01.35,1.63.56l-.12-.28c.54.18.63.29.87.44.36-.06-.01-.21-.4-.34-.39-.12-.79-.24-.45-.35.61.61,3.84,1.33,4.08,2.07.81.34-.13-.35.68,0l.15.23.28-.08c.5.29.68.59.65.71-.12-.08-.37-.15-.51-.2.58.5,1.91.88,2.1,1.07-.23-.17-.47-.31-.7-.47.56.22,1.11.54,1.67.87.54.32,1.17.66,1.67.99,1.05.74,2.07,1.56,3,2.24l-.05-.2c1.4,1.09.94,1.06,2.22,2.47l-.06-.04c.31.24.69.6.95,1.06-.37-.33.27.89-.19.44.58.72.68.92.82,1.02.14.1.25.12.67.62l-.07.33c.33.33.38.35.67,1.26-.35-.71-.13.62-.55-.15,0,.95.1,1.59.12,2.16,0,.12.03.22.03.3-.03.09-.05.13-.11.25-.12.21-.25.4-.5.5,0,.47.29.21.51-.22.09-.18.19-.38.25-.5.02-.1.02-.16.05-.06.07-.15.24.02.16.28-.07.28-.22.76-.42.99-.17.28-.45.42-.81.58-.35.17-.76.35-1.22.5.09-.03.09-.07.18-.1-.1,0-.18.02-.26.06-.08,0-.16.06-.26.07-.18.02-.42.04-.63-.17-.42.18-.63-.37-.93-.12.35.25.75.42,1.12.47-.41-.02-1-.06-1.53-.45l-.05-.05c-.19-.11-.45-.45-.5-.86.1.07.35.35.52.47-.08-.29-.38-.5-.34-.88.13,0,.22.16.32.34.05.09.11.2.18.29.04.08.19.22.15.18h0s.14.11.14.11c.18.16.52.35.75.35-.1-.15-.55-.32-.68-.42l-.14-.12c.06.06-.02-.02,0-.03,0-.03.06-.05.14-.09-.27.12-.45-.17-.51-.48-.06-.33-.07-.71-.25-1.2l.23.07c-.01-.07-.04-.19-.06-.31-.01-.03,0-.12-.02-.09.02-.1.03-.21.06-.3.03.35.11.33.21.49-.03-.08-.03-.17-.05-.12.02-.14.05-.28.09-.42.09-.27.15-.55.19-.84.13-.57.11-1.16-.08-1.71.25,1.19.1,1.34.02,1.3-.09-.04-.2-.23-.3.25-.17-1.37-.28-1.71-.23-2.21-.01-.44.01-1.07-.95-2.22.31.27.75,1.34.31.86-.26-.51-.67-1.12-.81-1.45-1.37-1.32.03.37-.63-.1-.26-.64-.74-.54-1.41-.95l.14-.19c-1.59-1.32-.7.06-2.15-1.06.27.03.56.07.84.11-.26-.14-.63-.32-.83-.39.06-.07.14-.13.26-.17-.17-.07-.11,0-.2-.05-.1-.05-.19-.1-.27-.14-.17-.09-.31-.18-.44-.27-.27-.19-.52-.4-.92-.7.1.27-.34.28-1.09-.16-.44-.43.41-.02-.68-.63.32.01.68.01,1.04.48.09-.04.32.02.41-.01-.47-.49-1.39-.89-1.8-1.1.15.09.33.21.41.29-.59-.2-1.18-.39-1.78-.55-.22-.21.02-.17.25-.14-.34-.14-.63-.15-1.13-.35.21-.12.26-.33,1.01-.08-.57-.18-1.14-.36-1.72-.5-.07-.13-.78-.54-.54-.53-.92-.45-2.46-.36-3.77-.66-.07.03-.22.05-.51.05-.62-.07-1.26-.15-1.86-.15-.6,0-1.27.04-2.06.35-.38-.03-.91,0-1.38.11-.8.52-.31.35,0,.3.16-.02.29-.01.22.08-.06.1-.35.24-.79.74-.39.5-.45.79-.55.88-.15.23-.26-.22-.42.23-.01.53.21,1.25.64,1.93.11.17.22.34.34.51.1.13.2.26.3.4.09.13.19.26.29.4.12.17.19.27.26.4-.08-.06-.15-.12-.21-.18-.08-.08-.16-.17-.21-.24-.12-.16-.24-.31-.38-.48ZM35.79,19.78c-.21-.15-.68-.41-.71-.64.4.02.46.27.71.64ZM32.87,31.31c.19-.07.46-.02.78.09-.23,0-.5-.01-.78-.09ZM21.53,19.88h-.03c-.35-.45-.23-.29.03,0ZM22.34,20.7c.11.05.13.01.11-.04-.1,0-.31-.16-.51-.36.02.1.11.23.41.4ZM52.54,23.77l-.32.05c.65-.3.48-.18.32-.05Z"/>
    <path class="cls-1" d="M35,30.95c.07.04.1.08.12.12.09-.05.08-.09-.12-.12Z"/>
    <path class="cls-1" d="M32.71,4.84h.04s.04-.02.05-.03l-.09.03Z"/>
    <path class="cls-1" d="M10.08,9.56c-.17.01-.28,0-.36,0,.01.06.11.06.36,0Z"/>
    <path class="cls-1" d="M27.55,23.51c-.22-.07-.44-.15-.66-.23.31.13.4.23.54.33,0-.06-.08-.18.12-.1Z"/>
    <path class="cls-1" d="M32.39,23.66c0-.11.04-.23.03-.35l-.12.02c-.06.45-.08.79.09.33Z"/>
    <path class="cls-1" d="M27.86,24.5c-.02.21.44.31.94.41l-.09-.02c.22-.23-.31-.28-.85-.39Z"/>
    <path class="cls-1" d="M28.92,24.93c.15.03.3.07.45.1.08-.1-.16-.05-.45-.1Z"/>
    <path class="cls-1" d="M23.56,21.46c.07.08.16.06.24.04.06-.03.15-.03.16.03.06-.03.09-.02-.07-.14-.37-.2-1.16-.42-.32.07Z"/>
    <path class="cls-1" d="M28.04,25.27l-.1-.3-.35.09c.15.07.29.15.44.21Z"/>
    <path class="cls-1" d="M24.37,23.27c.22.17.45.34.68.5.01-.04.12-.01.24.04-.45-.26-.9-.61-.92-.54Z"/>
    <path class="cls-1" d="M25.29,23.81c.23.14.46.25.61.29-.13-.06-.41-.21-.61-.29Z"/>
    <path class="cls-1" d="M26.92,24.92l-.21-.15-.54-.27c.25.14.49.29.75.42Z"/>
    <path class="cls-1" d="M17.65,17.22c-.21-.22-.43-.44-.63-.68-.12-.03-.02.22.22.46.19.13.43.38.4.22Z"/>
    <path class="cls-1" d="M19.03,19.76c-.14-.22-.11-.27-.15-.43l-.24.2.4.24Z"/>
    <path class="cls-1" d="M17.13,17.78c-.12-.02-1.07-.92-.29,0,.13.02.79.71.29,0Z"/>
    <path class="cls-1" d="M8.64,9.37l.18-.14-.32-.4c.04.18.08.37.13.54Z"/>
    <path class="cls-1" d="M12.25,18.75c-.67-.82-.4.05-.97-.72-.26-.09.47.64.22.53.54.36.75.64.76.19Z"/>
    <path class="cls-1" d="M11.49,18.56c-.09-.06-.18-.12-.29-.17.16.11.24.15.29.17Z"/>
    <polygon class="cls-1" points="24.21 .23 23.44 .26 23.96 .33 24.21 .23"/>
    <path class="cls-1" d="M22.87.88l-.26-.27-.39.42c.2-.08.5-.19.65-.15Z"/>
    <path class="cls-1" d="M36.68,21.65l.09-.02c-.02-.14-.13-.26-.35-.51l.25.53Z"/>
    <polygon class="cls-1" points="30.19 14.55 30.3 14.68 30.3 14.25 30.19 14.55"/>
    <path class="cls-1" d="M25.42,6.27c-.14.2-.22.45-.31.69-.08.39-.13.79-.09,1.16-.06-.47.06-.85.17-1.13.26-.51.5-.68.23-.72Z"/>
  </g>
</svg>